<?xml version="1.0" encoding="utf-8" standalone="no"?>
<!DOCTYPE svg PUBLIC "-//W3C//DTD SVG 1.1//EN"
  "http://www.w3.org/Graphics/SVG/1.1/DTD/svg11.dtd">
<svg xmlns:xlink="http://www.w3.org/1999/xlink" width="720pt" height="288pt" viewBox="0 0 720 288" xmlns="http://www.w3.org/2000/svg" version="1.1">
 <metadata>
  <rdf:RDF xmlns:dc="http://purl.org/dc/elements/1.1/" xmlns:cc="http://creativecommons.org/ns#" xmlns:rdf="http://www.w3.org/1999/02/22-rdf-syntax-ns#">
   <cc:Work>
    <dc:type rdf:resource="http://purl.org/dc/dcmitype/StillImage"/>
    <dc:date>2023-04-03T02:44:46.133261</dc:date>
    <dc:format>image/svg+xml</dc:format>
    <dc:creator>
     <cc:Agent>
      <dc:title>Matplotlib v3.6.2, https://matplotlib.org/</dc:title>
     </cc:Agent>
    </dc:creator>
   </cc:Work>
  </rdf:RDF>
 </metadata>
 <defs>
  <style type="text/css">*{stroke-linejoin: round; stroke-linecap: butt}</style>
 </defs>
 <g id="figure_1">
  <g id="patch_1">
   <path d="M 0 288 
L 720 288 
L 720 0 
L 0 0 
z
" style="fill: #ffffff"/>
  </g>
  <g id="axes_1">
   <g id="patch_2">
    <path d="M 53.750209 243.16 
L 709.2 243.16 
L 709.2 10.8 
L 53.750209 10.8 
z
" style="fill: #ffffff"/>
   </g>
   <g id="PathCollection_1">
    <defs>
     <path id="m9471b80d89" d="M 0 3 
C 0.795609 3 1.55874 2.683901 2.12132 2.12132 
C 2.683901 1.55874 3 0.795609 3 0 
C 3 -0.795609 2.683901 -1.55874 2.12132 -2.12132 
C 1.55874 -2.683901 0.795609 -3 0 -3 
C -0.795609 -3 -1.55874 -2.683901 -2.12132 -2.12132 
C -2.683901 -1.55874 -3 -0.795609 -3 0 
C -3 0.795609 -2.683901 1.55874 -2.12132 2.12132 
C -1.55874 2.683901 -0.795609 3 0 3 
z
" style="stroke: #000000"/>
    </defs>
    <g clip-path="url(#pecf5224c34)">
     <use xlink:href="#m9471b80d89" x="97.857837" y="134.700357" style="stroke: #000000"/>
     <use xlink:href="#m9471b80d89" x="105.313593" y="125.234381" style="stroke: #000000"/>
     <use xlink:href="#m9471b80d89" x="112.769349" y="118.681667" style="stroke: #000000"/>
     <use xlink:href="#m9471b80d89" x="120.225105" y="114.027939" style="stroke: #000000"/>
     <use xlink:href="#m9471b80d89" x="127.680862" y="109.856295" style="stroke: #000000"/>
     <use xlink:href="#m9471b80d89" x="135.136618" y="106.480224" style="stroke: #000000"/>
     <use xlink:href="#m9471b80d89" x="142.592374" y="103.687408" style="stroke: #000000"/>
     <use xlink:href="#m9471b80d89" x="150.048131" y="101.305697" style="stroke: #000000"/>
     <use xlink:href="#m9471b80d89" x="157.503887" y="99.229447" style="stroke: #000000"/>
     <use xlink:href="#m9471b80d89" x="164.959643" y="97.170259" style="stroke: #000000"/>
     <use xlink:href="#m9471b80d89" x="172.415399" y="95.282138" style="stroke: #000000"/>
     <use xlink:href="#m9471b80d89" x="179.871156" y="93.591133" style="stroke: #000000"/>
     <use xlink:href="#m9471b80d89" x="187.326912" y="92.05995" style="stroke: #000000"/>
     <use xlink:href="#m9471b80d89" x="194.782668" y="90.660969" style="stroke: #000000"/>
     <use xlink:href="#m9471b80d89" x="202.238425" y="89.373165" style="stroke: #000000"/>
     <use xlink:href="#m9471b80d89" x="209.694181" y="88.180162" style="stroke: #000000"/>
     <use xlink:href="#m9471b80d89" x="217.149937" y="87.068953" style="stroke: #000000"/>
     <use xlink:href="#m9471b80d89" x="224.605694" y="86.02904" style="stroke: #000000"/>
     <use xlink:href="#m9471b80d89" x="232.06145" y="85.051821" style="stroke: #000000"/>
     <use xlink:href="#m9471b80d89" x="239.517206" y="84.063747" style="stroke: #000000"/>
     <use xlink:href="#m9471b80d89" x="246.972962" y="83.074774" style="stroke: #000000"/>
     <use xlink:href="#m9471b80d89" x="254.428719" y="82.142671" style="stroke: #000000"/>
     <use xlink:href="#m9471b80d89" x="261.884475" y="81.261252" style="stroke: #000000"/>
     <use xlink:href="#m9471b80d89" x="269.340231" y="80.425287" style="stroke: #000000"/>
     <use xlink:href="#m9471b80d89" x="276.795988" y="79.630318" style="stroke: #000000"/>
     <use xlink:href="#m9471b80d89" x="284.251744" y="78.872511" style="stroke: #000000"/>
     <use xlink:href="#m9471b80d89" x="291.7075" y="78.148546" style="stroke: #000000"/>
     <use xlink:href="#m9471b80d89" x="299.163257" y="77.455529" style="stroke: #000000"/>
     <use xlink:href="#m9471b80d89" x="306.619013" y="76.790923" style="stroke: #000000"/>
     <use xlink:href="#m9471b80d89" x="314.074769" y="76.152489" style="stroke: #000000"/>
     <use xlink:href="#m9471b80d89" x="321.530525" y="75.538244" style="stroke: #000000"/>
     <use xlink:href="#m9471b80d89" x="328.986282" y="74.946422" style="stroke: #000000"/>
     <use xlink:href="#m9471b80d89" x="336.442038" y="74.375444" style="stroke: #000000"/>
     <use xlink:href="#m9471b80d89" x="343.897794" y="73.82389" style="stroke: #000000"/>
     <use xlink:href="#m9471b80d89" x="351.353551" y="73.290482" style="stroke: #000000"/>
     <use xlink:href="#m9471b80d89" x="358.809307" y="72.774065" style="stroke: #000000"/>
     <use xlink:href="#m9471b80d89" x="366.265063" y="72.27359" style="stroke: #000000"/>
     <use xlink:href="#m9471b80d89" x="373.72082" y="71.788101" style="stroke: #000000"/>
     <use xlink:href="#m9471b80d89" x="381.176576" y="71.316727" style="stroke: #000000"/>
     <use xlink:href="#m9471b80d89" x="388.632332" y="70.856412" style="stroke: #000000"/>
     <use xlink:href="#m9471b80d89" x="396.088088" y="70.356176" style="stroke: #000000"/>
     <use xlink:href="#m9471b80d89" x="403.543845" y="69.870913" style="stroke: #000000"/>
     <use xlink:href="#m9471b80d89" x="410.999601" y="69.399753" style="stroke: #000000"/>
     <use xlink:href="#m9471b80d89" x="418.455357" y="68.941897" style="stroke: #000000"/>
     <use xlink:href="#m9471b80d89" x="425.911114" y="68.494665" style="stroke: #000000"/>
     <use xlink:href="#m9471b80d89" x="433.36687" y="68.063238" style="stroke: #000000"/>
     <use xlink:href="#m9471b80d89" x="440.822626" y="67.641143" style="stroke: #000000"/>
     <use xlink:href="#m9471b80d89" x="448.278382" y="67.227952" style="stroke: #000000"/>
     <use xlink:href="#m9471b80d89" x="455.734139" y="66.823268" style="stroke: #000000"/>
     <use xlink:href="#m9471b80d89" x="463.189895" y="66.437034" style="stroke: #000000"/>
     <use xlink:href="#m9471b80d89" x="470.645651" y="66.054748" style="stroke: #000000"/>
     <use xlink:href="#m9471b80d89" x="478.101408" y="65.681268" style="stroke: #000000"/>
     <use xlink:href="#m9471b80d89" x="485.557164" y="65.316197" style="stroke: #000000"/>
     <use xlink:href="#m9471b80d89" x="493.01292" y="64.954458" style="stroke: #000000"/>
     <use xlink:href="#m9471b80d89" x="500.468677" y="64.609827" style="stroke: #000000"/>
     <use xlink:href="#m9471b80d89" x="507.924433" y="64.267857" style="stroke: #000000"/>
     <use xlink:href="#m9471b80d89" x="515.380189" y="63.93295" style="stroke: #000000"/>
     <use xlink:href="#m9471b80d89" x="522.835945" y="63.604821" style="stroke: #000000"/>
     <use xlink:href="#m9471b80d89" x="530.291702" y="63.283201" style="stroke: #000000"/>
     <use xlink:href="#m9471b80d89" x="537.747458" y="62.966449" style="stroke: #000000"/>
     <use xlink:href="#m9471b80d89" x="545.203214" y="62.644876" style="stroke: #000000"/>
     <use xlink:href="#m9471b80d89" x="552.658971" y="62.256327" style="stroke: #000000"/>
     <use xlink:href="#m9471b80d89" x="560.114727" y="61.967968" style="stroke: #000000"/>
     <use xlink:href="#m9471b80d89" x="567.570483" y="61.639825" style="stroke: #000000"/>
     <use xlink:href="#m9471b80d89" x="575.02624" y="61.219442" style="stroke: #000000"/>
     <use xlink:href="#m9471b80d89" x="582.481996" y="60.947574" style="stroke: #000000"/>
     <use xlink:href="#m9471b80d89" x="589.937752" y="60.703107" style="stroke: #000000"/>
     <use xlink:href="#m9471b80d89" x="597.393508" y="60.433754" style="stroke: #000000"/>
     <use xlink:href="#m9471b80d89" x="604.849265" y="60.14196" style="stroke: #000000"/>
     <use xlink:href="#m9471b80d89" x="612.305021" y="59.901215" style="stroke: #000000"/>
     <use xlink:href="#m9471b80d89" x="619.760777" y="59.692321" style="stroke: #000000"/>
     <use xlink:href="#m9471b80d89" x="627.216534" y="59.487205" style="stroke: #000000"/>
     <use xlink:href="#m9471b80d89" x="634.67229" y="59.244883" style="stroke: #000000"/>
     <use xlink:href="#m9471b80d89" x="642.128046" y="59.018093" style="stroke: #000000"/>
     <use xlink:href="#m9471b80d89" x="649.583803" y="58.779416" style="stroke: #000000"/>
     <use xlink:href="#m9471b80d89" x="657.039559" y="58.419994" style="stroke: #000000"/>
     <use xlink:href="#m9471b80d89" x="664.495315" y="58.167172" style="stroke: #000000"/>
     <use xlink:href="#m9471b80d89" x="671.951071" y="57.902989" style="stroke: #000000"/>
     <use xlink:href="#m9471b80d89" x="679.406828" y="57.477965" style="stroke: #000000"/>
    </g>
   </g>
   <g id="matplotlib.axis_1">
    <g id="xtick_1">
     <g id="line2d_1">
      <defs>
       <path id="m7e8e6b6e89" d="M 0 0 
L 0 3.5 
" style="stroke: #000000; stroke-width: 0.8"/>
      </defs>
      <g>
       <use xlink:href="#m7e8e6b6e89" x="82.946324" y="243.16" style="stroke: #000000; stroke-width: 0.8"/>
      </g>
     </g>
     <g id="text_1">
      <!-- 0 -->
      <g transform="translate(79.765074 257.758438) scale(0.1 -0.1)">
       <defs>
        <path id="DejaVuSans-30" d="M 2034 4250 
Q 1547 4250 1301 3770 
Q 1056 3291 1056 2328 
Q 1056 1369 1301 889 
Q 1547 409 2034 409 
Q 2525 409 2770 889 
Q 3016 1369 3016 2328 
Q 3016 3291 2770 3770 
Q 2525 4250 2034 4250 
z
M 2034 4750 
Q 2819 4750 3233 4129 
Q 3647 3509 3647 2328 
Q 3647 1150 3233 529 
Q 2819 -91 2034 -91 
Q 1250 -91 836 529 
Q 422 1150 422 2328 
Q 422 3509 836 4129 
Q 1250 4750 2034 4750 
z
" transform="scale(0.015625)"/>
       </defs>
       <use xlink:href="#DejaVuSans-30"/>
      </g>
     </g>
    </g>
    <g id="xtick_2">
     <g id="line2d_2">
      <g>
       <use xlink:href="#m7e8e6b6e89" x="157.503887" y="243.16" style="stroke: #000000; stroke-width: 0.8"/>
      </g>
     </g>
     <g id="text_2">
      <!-- 250 -->
      <g transform="translate(147.960137 257.758438) scale(0.1 -0.1)">
       <defs>
        <path id="DejaVuSans-32" d="M 1228 531 
L 3431 531 
L 3431 0 
L 469 0 
L 469 531 
Q 828 903 1448 1529 
Q 2069 2156 2228 2338 
Q 2531 2678 2651 2914 
Q 2772 3150 2772 3378 
Q 2772 3750 2511 3984 
Q 2250 4219 1831 4219 
Q 1534 4219 1204 4116 
Q 875 4013 500 3803 
L 500 4441 
Q 881 4594 1212 4672 
Q 1544 4750 1819 4750 
Q 2544 4750 2975 4387 
Q 3406 4025 3406 3419 
Q 3406 3131 3298 2873 
Q 3191 2616 2906 2266 
Q 2828 2175 2409 1742 
Q 1991 1309 1228 531 
z
" transform="scale(0.015625)"/>
        <path id="DejaVuSans-35" d="M 691 4666 
L 3169 4666 
L 3169 4134 
L 1269 4134 
L 1269 2991 
Q 1406 3038 1543 3061 
Q 1681 3084 1819 3084 
Q 2600 3084 3056 2656 
Q 3513 2228 3513 1497 
Q 3513 744 3044 326 
Q 2575 -91 1722 -91 
Q 1428 -91 1123 -41 
Q 819 9 494 109 
L 494 744 
Q 775 591 1075 516 
Q 1375 441 1709 441 
Q 2250 441 2565 725 
Q 2881 1009 2881 1497 
Q 2881 1984 2565 2268 
Q 2250 2553 1709 2553 
Q 1456 2553 1204 2497 
Q 953 2441 691 2322 
L 691 4666 
z
" transform="scale(0.015625)"/>
       </defs>
       <use xlink:href="#DejaVuSans-32"/>
       <use xlink:href="#DejaVuSans-35" x="63.623047"/>
       <use xlink:href="#DejaVuSans-30" x="127.246094"/>
      </g>
     </g>
    </g>
    <g id="xtick_3">
     <g id="line2d_3">
      <g>
       <use xlink:href="#m7e8e6b6e89" x="232.06145" y="243.16" style="stroke: #000000; stroke-width: 0.8"/>
      </g>
     </g>
     <g id="text_3">
      <!-- 500 -->
      <g transform="translate(222.5177 257.758438) scale(0.1 -0.1)">
       <use xlink:href="#DejaVuSans-35"/>
       <use xlink:href="#DejaVuSans-30" x="63.623047"/>
       <use xlink:href="#DejaVuSans-30" x="127.246094"/>
      </g>
     </g>
    </g>
    <g id="xtick_4">
     <g id="line2d_4">
      <g>
       <use xlink:href="#m7e8e6b6e89" x="306.619013" y="243.16" style="stroke: #000000; stroke-width: 0.8"/>
      </g>
     </g>
     <g id="text_4">
      <!-- 750 -->
      <g transform="translate(297.075263 257.758438) scale(0.1 -0.1)">
       <defs>
        <path id="DejaVuSans-37" d="M 525 4666 
L 3525 4666 
L 3525 4397 
L 1831 0 
L 1172 0 
L 2766 4134 
L 525 4134 
L 525 4666 
z
" transform="scale(0.015625)"/>
       </defs>
       <use xlink:href="#DejaVuSans-37"/>
       <use xlink:href="#DejaVuSans-35" x="63.623047"/>
       <use xlink:href="#DejaVuSans-30" x="127.246094"/>
      </g>
     </g>
    </g>
    <g id="xtick_5">
     <g id="line2d_5">
      <g>
       <use xlink:href="#m7e8e6b6e89" x="381.176576" y="243.16" style="stroke: #000000; stroke-width: 0.8"/>
      </g>
     </g>
     <g id="text_5">
      <!-- 1000 -->
      <g transform="translate(368.451576 257.758438) scale(0.1 -0.1)">
       <defs>
        <path id="DejaVuSans-31" d="M 794 531 
L 1825 531 
L 1825 4091 
L 703 3866 
L 703 4441 
L 1819 4666 
L 2450 4666 
L 2450 531 
L 3481 531 
L 3481 0 
L 794 0 
L 794 531 
z
" transform="scale(0.015625)"/>
       </defs>
       <use xlink:href="#DejaVuSans-31"/>
       <use xlink:href="#DejaVuSans-30" x="63.623047"/>
       <use xlink:href="#DejaVuSans-30" x="127.246094"/>
       <use xlink:href="#DejaVuSans-30" x="190.869141"/>
      </g>
     </g>
    </g>
    <g id="xtick_6">
     <g id="line2d_6">
      <g>
       <use xlink:href="#m7e8e6b6e89" x="455.734139" y="243.16" style="stroke: #000000; stroke-width: 0.8"/>
      </g>
     </g>
     <g id="text_6">
      <!-- 1250 -->
      <g transform="translate(443.009139 257.758438) scale(0.1 -0.1)">
       <use xlink:href="#DejaVuSans-31"/>
       <use xlink:href="#DejaVuSans-32" x="63.623047"/>
       <use xlink:href="#DejaVuSans-35" x="127.246094"/>
       <use xlink:href="#DejaVuSans-30" x="190.869141"/>
      </g>
     </g>
    </g>
    <g id="xtick_7">
     <g id="line2d_7">
      <g>
       <use xlink:href="#m7e8e6b6e89" x="530.291702" y="243.16" style="stroke: #000000; stroke-width: 0.8"/>
      </g>
     </g>
     <g id="text_7">
      <!-- 1500 -->
      <g transform="translate(517.566702 257.758438) scale(0.1 -0.1)">
       <use xlink:href="#DejaVuSans-31"/>
       <use xlink:href="#DejaVuSans-35" x="63.623047"/>
       <use xlink:href="#DejaVuSans-30" x="127.246094"/>
       <use xlink:href="#DejaVuSans-30" x="190.869141"/>
      </g>
     </g>
    </g>
    <g id="xtick_8">
     <g id="line2d_8">
      <g>
       <use xlink:href="#m7e8e6b6e89" x="604.849265" y="243.16" style="stroke: #000000; stroke-width: 0.8"/>
      </g>
     </g>
     <g id="text_8">
      <!-- 1750 -->
      <g transform="translate(592.124265 257.758438) scale(0.1 -0.1)">
       <use xlink:href="#DejaVuSans-31"/>
       <use xlink:href="#DejaVuSans-37" x="63.623047"/>
       <use xlink:href="#DejaVuSans-35" x="127.246094"/>
       <use xlink:href="#DejaVuSans-30" x="190.869141"/>
      </g>
     </g>
    </g>
    <g id="xtick_9">
     <g id="line2d_9">
      <g>
       <use xlink:href="#m7e8e6b6e89" x="679.406828" y="243.16" style="stroke: #000000; stroke-width: 0.8"/>
      </g>
     </g>
     <g id="text_9">
      <!-- 2000 -->
      <g transform="translate(666.681828 257.758438) scale(0.1 -0.1)">
       <use xlink:href="#DejaVuSans-32"/>
       <use xlink:href="#DejaVuSans-30" x="63.623047"/>
       <use xlink:href="#DejaVuSans-30" x="127.246094"/>
       <use xlink:href="#DejaVuSans-30" x="190.869141"/>
      </g>
     </g>
    </g>
    <g id="text_10">
     <!-- quantidade de pontos $(n)$ -->
     <g transform="translate(310.725105 271.438125) scale(0.1 -0.1)">
      <defs>
       <path id="DejaVuSans-Bold-71" d="M 2181 2772 
Q 1825 2772 1636 2509 
Q 1447 2247 1447 1747 
Q 1447 1247 1636 984 
Q 1825 722 2181 722 
Q 2541 722 2730 984 
Q 2919 1247 2919 1747 
Q 2919 2247 2730 2509 
Q 2541 2772 2181 2772 
z
M 2919 506 
Q 2688 197 2409 53 
Q 2131 -91 1766 -91 
Q 1119 -91 703 423 
Q 288 938 288 1747 
Q 288 2556 703 3067 
Q 1119 3578 1766 3578 
Q 2131 3578 2409 3434 
Q 2688 3291 2919 2981 
L 2919 3500 
L 4044 3500 
L 4044 -1331 
L 2919 -1331 
L 2919 506 
z
" transform="scale(0.015625)"/>
       <path id="DejaVuSans-Bold-75" d="M 500 1363 
L 500 3500 
L 1625 3500 
L 1625 3150 
Q 1625 2866 1622 2436 
Q 1619 2006 1619 1863 
Q 1619 1441 1641 1255 
Q 1663 1069 1716 984 
Q 1784 875 1895 815 
Q 2006 756 2150 756 
Q 2500 756 2700 1025 
Q 2900 1294 2900 1772 
L 2900 3500 
L 4019 3500 
L 4019 0 
L 2900 0 
L 2900 506 
Q 2647 200 2364 54 
Q 2081 -91 1741 -91 
Q 1134 -91 817 281 
Q 500 653 500 1363 
z
" transform="scale(0.015625)"/>
       <path id="DejaVuSans-Bold-61" d="M 2106 1575 
Q 1756 1575 1579 1456 
Q 1403 1338 1403 1106 
Q 1403 894 1545 773 
Q 1688 653 1941 653 
Q 2256 653 2472 879 
Q 2688 1106 2688 1447 
L 2688 1575 
L 2106 1575 
z
M 3816 1997 
L 3816 0 
L 2688 0 
L 2688 519 
Q 2463 200 2181 54 
Q 1900 -91 1497 -91 
Q 953 -91 614 226 
Q 275 544 275 1050 
Q 275 1666 698 1953 
Q 1122 2241 2028 2241 
L 2688 2241 
L 2688 2328 
Q 2688 2594 2478 2717 
Q 2269 2841 1825 2841 
Q 1466 2841 1156 2769 
Q 847 2697 581 2553 
L 581 3406 
Q 941 3494 1303 3539 
Q 1666 3584 2028 3584 
Q 2975 3584 3395 3211 
Q 3816 2838 3816 1997 
z
" transform="scale(0.015625)"/>
       <path id="DejaVuSans-Bold-6e" d="M 4056 2131 
L 4056 0 
L 2931 0 
L 2931 347 
L 2931 1631 
Q 2931 2084 2911 2256 
Q 2891 2428 2841 2509 
Q 2775 2619 2662 2680 
Q 2550 2741 2406 2741 
Q 2056 2741 1856 2470 
Q 1656 2200 1656 1722 
L 1656 0 
L 538 0 
L 538 3500 
L 1656 3500 
L 1656 2988 
Q 1909 3294 2193 3439 
Q 2478 3584 2822 3584 
Q 3428 3584 3742 3212 
Q 4056 2841 4056 2131 
z
" transform="scale(0.015625)"/>
       <path id="DejaVuSans-Bold-74" d="M 1759 4494 
L 1759 3500 
L 2913 3500 
L 2913 2700 
L 1759 2700 
L 1759 1216 
Q 1759 972 1856 886 
Q 1953 800 2241 800 
L 2816 800 
L 2816 0 
L 1856 0 
Q 1194 0 917 276 
Q 641 553 641 1216 
L 641 2700 
L 84 2700 
L 84 3500 
L 641 3500 
L 641 4494 
L 1759 4494 
z
" transform="scale(0.015625)"/>
       <path id="DejaVuSans-Bold-69" d="M 538 3500 
L 1656 3500 
L 1656 0 
L 538 0 
L 538 3500 
z
M 538 4863 
L 1656 4863 
L 1656 3950 
L 538 3950 
L 538 4863 
z
" transform="scale(0.015625)"/>
       <path id="DejaVuSans-Bold-64" d="M 2919 2988 
L 2919 4863 
L 4044 4863 
L 4044 0 
L 2919 0 
L 2919 506 
Q 2688 197 2409 53 
Q 2131 -91 1766 -91 
Q 1119 -91 703 423 
Q 288 938 288 1747 
Q 288 2556 703 3070 
Q 1119 3584 1766 3584 
Q 2128 3584 2408 3439 
Q 2688 3294 2919 2988 
z
M 2181 722 
Q 2541 722 2730 984 
Q 2919 1247 2919 1747 
Q 2919 2247 2730 2509 
Q 2541 2772 2181 2772 
Q 1825 2772 1636 2509 
Q 1447 2247 1447 1747 
Q 1447 1247 1636 984 
Q 1825 722 2181 722 
z
" transform="scale(0.015625)"/>
       <path id="DejaVuSans-Bold-65" d="M 4031 1759 
L 4031 1441 
L 1416 1441 
Q 1456 1047 1700 850 
Q 1944 653 2381 653 
Q 2734 653 3104 758 
Q 3475 863 3866 1075 
L 3866 213 
Q 3469 63 3072 -14 
Q 2675 -91 2278 -91 
Q 1328 -91 801 392 
Q 275 875 275 1747 
Q 275 2603 792 3093 
Q 1309 3584 2216 3584 
Q 3041 3584 3536 3087 
Q 4031 2591 4031 1759 
z
M 2881 2131 
Q 2881 2450 2695 2645 
Q 2509 2841 2209 2841 
Q 1884 2841 1681 2658 
Q 1478 2475 1428 2131 
L 2881 2131 
z
" transform="scale(0.015625)"/>
       <path id="DejaVuSans-Bold-20" transform="scale(0.015625)"/>
       <path id="DejaVuSans-Bold-70" d="M 1656 506 
L 1656 -1331 
L 538 -1331 
L 538 3500 
L 1656 3500 
L 1656 2988 
Q 1888 3294 2169 3439 
Q 2450 3584 2816 3584 
Q 3463 3584 3878 3070 
Q 4294 2556 4294 1747 
Q 4294 938 3878 423 
Q 3463 -91 2816 -91 
Q 2450 -91 2169 54 
Q 1888 200 1656 506 
z
M 2400 2772 
Q 2041 2772 1848 2508 
Q 1656 2244 1656 1747 
Q 1656 1250 1848 986 
Q 2041 722 2400 722 
Q 2759 722 2948 984 
Q 3138 1247 3138 1747 
Q 3138 2247 2948 2509 
Q 2759 2772 2400 2772 
z
" transform="scale(0.015625)"/>
       <path id="DejaVuSans-Bold-6f" d="M 2203 2784 
Q 1831 2784 1636 2517 
Q 1441 2250 1441 1747 
Q 1441 1244 1636 976 
Q 1831 709 2203 709 
Q 2569 709 2762 976 
Q 2956 1244 2956 1747 
Q 2956 2250 2762 2517 
Q 2569 2784 2203 2784 
z
M 2203 3584 
Q 3106 3584 3614 3096 
Q 4122 2609 4122 1747 
Q 4122 884 3614 396 
Q 3106 -91 2203 -91 
Q 1297 -91 786 396 
Q 275 884 275 1747 
Q 275 2609 786 3096 
Q 1297 3584 2203 3584 
z
" transform="scale(0.015625)"/>
       <path id="DejaVuSans-Bold-73" d="M 3272 3391 
L 3272 2541 
Q 2913 2691 2578 2766 
Q 2244 2841 1947 2841 
Q 1628 2841 1473 2761 
Q 1319 2681 1319 2516 
Q 1319 2381 1436 2309 
Q 1553 2238 1856 2203 
L 2053 2175 
Q 2913 2066 3209 1816 
Q 3506 1566 3506 1031 
Q 3506 472 3093 190 
Q 2681 -91 1863 -91 
Q 1516 -91 1145 -36 
Q 775 19 384 128 
L 384 978 
Q 719 816 1070 734 
Q 1422 653 1784 653 
Q 2113 653 2278 743 
Q 2444 834 2444 1013 
Q 2444 1163 2330 1236 
Q 2216 1309 1875 1350 
L 1678 1375 
Q 931 1469 631 1722 
Q 331 1975 331 2491 
Q 331 3047 712 3315 
Q 1094 3584 1881 3584 
Q 2191 3584 2531 3537 
Q 2872 3491 3272 3391 
z
" transform="scale(0.015625)"/>
       <path id="DejaVuSans-28" d="M 1984 4856 
Q 1566 4138 1362 3434 
Q 1159 2731 1159 2009 
Q 1159 1288 1364 580 
Q 1569 -128 1984 -844 
L 1484 -844 
Q 1016 -109 783 600 
Q 550 1309 550 2009 
Q 550 2706 781 3412 
Q 1013 4119 1484 4856 
L 1984 4856 
z
" transform="scale(0.015625)"/>
       <path id="DejaVuSans-Oblique-6e" d="M 3566 2113 
L 3156 0 
L 2578 0 
L 2988 2091 
Q 3016 2238 3031 2350 
Q 3047 2463 3047 2528 
Q 3047 2791 2881 2937 
Q 2716 3084 2419 3084 
Q 1956 3084 1622 2776 
Q 1288 2469 1184 1941 
L 800 0 
L 225 0 
L 903 3500 
L 1478 3500 
L 1363 2950 
Q 1603 3253 1940 3418 
Q 2278 3584 2650 3584 
Q 3113 3584 3367 3334 
Q 3622 3084 3622 2631 
Q 3622 2519 3608 2391 
Q 3594 2263 3566 2113 
z
" transform="scale(0.015625)"/>
       <path id="DejaVuSans-29" d="M 513 4856 
L 1013 4856 
Q 1481 4119 1714 3412 
Q 1947 2706 1947 2009 
Q 1947 1309 1714 600 
Q 1481 -109 1013 -844 
L 513 -844 
Q 928 -128 1133 580 
Q 1338 1288 1338 2009 
Q 1338 2731 1133 3434 
Q 928 4138 513 4856 
z
" transform="scale(0.015625)"/>
      </defs>
      <use xlink:href="#DejaVuSans-Bold-71" transform="translate(0 0.015625)"/>
      <use xlink:href="#DejaVuSans-Bold-75" transform="translate(71.582031 0.015625)"/>
      <use xlink:href="#DejaVuSans-Bold-61" transform="translate(142.773438 0.015625)"/>
      <use xlink:href="#DejaVuSans-Bold-6e" transform="translate(210.253906 0.015625)"/>
      <use xlink:href="#DejaVuSans-Bold-74" transform="translate(281.445312 0.015625)"/>
      <use xlink:href="#DejaVuSans-Bold-69" transform="translate(329.248047 0.015625)"/>
      <use xlink:href="#DejaVuSans-Bold-64" transform="translate(363.525391 0.015625)"/>
      <use xlink:href="#DejaVuSans-Bold-61" transform="translate(435.107422 0.015625)"/>
      <use xlink:href="#DejaVuSans-Bold-64" transform="translate(502.587891 0.015625)"/>
      <use xlink:href="#DejaVuSans-Bold-65" transform="translate(574.169922 0.015625)"/>
      <use xlink:href="#DejaVuSans-Bold-20" transform="translate(641.992188 0.015625)"/>
      <use xlink:href="#DejaVuSans-Bold-64" transform="translate(676.806641 0.015625)"/>
      <use xlink:href="#DejaVuSans-Bold-65" transform="translate(748.388672 0.015625)"/>
      <use xlink:href="#DejaVuSans-Bold-20" transform="translate(816.210938 0.015625)"/>
      <use xlink:href="#DejaVuSans-Bold-70" transform="translate(851.025391 0.015625)"/>
      <use xlink:href="#DejaVuSans-Bold-6f" transform="translate(922.607422 0.015625)"/>
      <use xlink:href="#DejaVuSans-Bold-6e" transform="translate(991.308594 0.015625)"/>
      <use xlink:href="#DejaVuSans-Bold-74" transform="translate(1062.5 0.015625)"/>
      <use xlink:href="#DejaVuSans-Bold-6f" transform="translate(1110.302734 0.015625)"/>
      <use xlink:href="#DejaVuSans-Bold-73" transform="translate(1179.003906 0.015625)"/>
      <use xlink:href="#DejaVuSans-Bold-20" transform="translate(1238.525391 0.015625)"/>
      <use xlink:href="#DejaVuSans-28" transform="translate(1273.339844 0.015625)"/>
      <use xlink:href="#DejaVuSans-Oblique-6e" transform="translate(1312.353516 0.015625)"/>
      <use xlink:href="#DejaVuSans-29" transform="translate(1375.732422 0.015625)"/>
     </g>
    </g>
   </g>
   <g id="matplotlib.axis_2">
    <g id="ytick_1">
     <g id="line2d_10">
      <defs>
       <path id="m5d719f6fb7" d="M 0 0 
L -3.5 0 
" style="stroke: #000000; stroke-width: 0.8"/>
      </defs>
      <g>
       <use xlink:href="#m5d719f6fb7" x="53.750209" y="214.824756" style="stroke: #000000; stroke-width: 0.8"/>
      </g>
     </g>
     <g id="text_11">
      <!-- $\mathdefault{10^{0}}$ -->
      <g transform="translate(29.150209 218.623975) scale(0.1 -0.1)">
       <use xlink:href="#DejaVuSans-31" transform="translate(0 0.765625)"/>
       <use xlink:href="#DejaVuSans-30" transform="translate(63.623047 0.765625)"/>
       <use xlink:href="#DejaVuSans-30" transform="translate(128.203125 39.046875) scale(0.7)"/>
      </g>
     </g>
    </g>
    <g id="ytick_2">
     <g id="line2d_11">
      <g>
       <use xlink:href="#m5d719f6fb7" x="53.750209" y="177.490358" style="stroke: #000000; stroke-width: 0.8"/>
      </g>
     </g>
     <g id="text_12">
      <!-- $\mathdefault{10^{1}}$ -->
      <g transform="translate(29.150209 181.289576) scale(0.1 -0.1)">
       <use xlink:href="#DejaVuSans-31" transform="translate(0 0.684375)"/>
       <use xlink:href="#DejaVuSans-30" transform="translate(63.623047 0.684375)"/>
       <use xlink:href="#DejaVuSans-31" transform="translate(128.203125 38.965625) scale(0.7)"/>
      </g>
     </g>
    </g>
    <g id="ytick_3">
     <g id="line2d_12">
      <g>
       <use xlink:href="#m5d719f6fb7" x="53.750209" y="140.155959" style="stroke: #000000; stroke-width: 0.8"/>
      </g>
     </g>
     <g id="text_13">
      <!-- $\mathdefault{10^{2}}$ -->
      <g transform="translate(29.150209 143.955178) scale(0.1 -0.1)">
       <use xlink:href="#DejaVuSans-31" transform="translate(0 0.765625)"/>
       <use xlink:href="#DejaVuSans-30" transform="translate(63.623047 0.765625)"/>
       <use xlink:href="#DejaVuSans-32" transform="translate(128.203125 39.046875) scale(0.7)"/>
      </g>
     </g>
    </g>
    <g id="ytick_4">
     <g id="line2d_13">
      <g>
       <use xlink:href="#m5d719f6fb7" x="53.750209" y="102.821561" style="stroke: #000000; stroke-width: 0.8"/>
      </g>
     </g>
     <g id="text_14">
      <!-- $\mathdefault{10^{3}}$ -->
      <g transform="translate(29.150209 106.62078) scale(0.1 -0.1)">
       <defs>
        <path id="DejaVuSans-33" d="M 2597 2516 
Q 3050 2419 3304 2112 
Q 3559 1806 3559 1356 
Q 3559 666 3084 287 
Q 2609 -91 1734 -91 
Q 1441 -91 1130 -33 
Q 819 25 488 141 
L 488 750 
Q 750 597 1062 519 
Q 1375 441 1716 441 
Q 2309 441 2620 675 
Q 2931 909 2931 1356 
Q 2931 1769 2642 2001 
Q 2353 2234 1838 2234 
L 1294 2234 
L 1294 2753 
L 1863 2753 
Q 2328 2753 2575 2939 
Q 2822 3125 2822 3475 
Q 2822 3834 2567 4026 
Q 2313 4219 1838 4219 
Q 1578 4219 1281 4162 
Q 984 4106 628 3988 
L 628 4550 
Q 988 4650 1302 4700 
Q 1616 4750 1894 4750 
Q 2613 4750 3031 4423 
Q 3450 4097 3450 3541 
Q 3450 3153 3228 2886 
Q 3006 2619 2597 2516 
z
" transform="scale(0.015625)"/>
       </defs>
       <use xlink:href="#DejaVuSans-31" transform="translate(0 0.765625)"/>
       <use xlink:href="#DejaVuSans-30" transform="translate(63.623047 0.765625)"/>
       <use xlink:href="#DejaVuSans-33" transform="translate(128.203125 39.046875) scale(0.7)"/>
      </g>
     </g>
    </g>
    <g id="ytick_5">
     <g id="line2d_14">
      <g>
       <use xlink:href="#m5d719f6fb7" x="53.750209" y="65.487163" style="stroke: #000000; stroke-width: 0.8"/>
      </g>
     </g>
     <g id="text_15">
      <!-- $\mathdefault{10^{4}}$ -->
      <g transform="translate(29.150209 69.286381) scale(0.1 -0.1)">
       <defs>
        <path id="DejaVuSans-34" d="M 2419 4116 
L 825 1625 
L 2419 1625 
L 2419 4116 
z
M 2253 4666 
L 3047 4666 
L 3047 1625 
L 3713 1625 
L 3713 1100 
L 3047 1100 
L 3047 0 
L 2419 0 
L 2419 1100 
L 313 1100 
L 313 1709 
L 2253 4666 
z
" transform="scale(0.015625)"/>
       </defs>
       <use xlink:href="#DejaVuSans-31" transform="translate(0 0.684375)"/>
       <use xlink:href="#DejaVuSans-30" transform="translate(63.623047 0.684375)"/>
       <use xlink:href="#DejaVuSans-34" transform="translate(128.203125 38.965625) scale(0.7)"/>
      </g>
     </g>
    </g>
    <g id="ytick_6">
     <g id="line2d_15">
      <g>
       <use xlink:href="#m5d719f6fb7" x="53.750209" y="28.152764" style="stroke: #000000; stroke-width: 0.8"/>
      </g>
     </g>
     <g id="text_16">
      <!-- $\mathdefault{10^{5}}$ -->
      <g transform="translate(29.150209 31.951983) scale(0.1 -0.1)">
       <use xlink:href="#DejaVuSans-31" transform="translate(0 0.684375)"/>
       <use xlink:href="#DejaVuSans-30" transform="translate(63.623047 0.684375)"/>
       <use xlink:href="#DejaVuSans-35" transform="translate(128.203125 38.965625) scale(0.7)"/>
      </g>
     </g>
    </g>
    <g id="ytick_7">
     <g id="line2d_16">
      <defs>
       <path id="m1270ebd517" d="M 0 0 
L -2 0 
" style="stroke: #000000; stroke-width: 0.6"/>
      </defs>
      <g>
       <use xlink:href="#m1270ebd517" x="53.750209" y="240.920381" style="stroke: #000000; stroke-width: 0.6"/>
      </g>
     </g>
    </g>
    <g id="ytick_8">
     <g id="line2d_17">
      <g>
       <use xlink:href="#m1270ebd517" x="53.750209" y="234.346119" style="stroke: #000000; stroke-width: 0.6"/>
      </g>
     </g>
    </g>
    <g id="ytick_9">
     <g id="line2d_18">
      <g>
       <use xlink:href="#m1270ebd517" x="53.750209" y="229.681607" style="stroke: #000000; stroke-width: 0.6"/>
      </g>
     </g>
    </g>
    <g id="ytick_10">
     <g id="line2d_19">
      <g>
       <use xlink:href="#m1270ebd517" x="53.750209" y="226.06353" style="stroke: #000000; stroke-width: 0.6"/>
      </g>
     </g>
    </g>
    <g id="ytick_11">
     <g id="line2d_20">
      <g>
       <use xlink:href="#m1270ebd517" x="53.750209" y="223.107346" style="stroke: #000000; stroke-width: 0.6"/>
      </g>
     </g>
    </g>
    <g id="ytick_12">
     <g id="line2d_21">
      <g>
       <use xlink:href="#m1270ebd517" x="53.750209" y="220.607927" style="stroke: #000000; stroke-width: 0.6"/>
      </g>
     </g>
    </g>
    <g id="ytick_13">
     <g id="line2d_22">
      <g>
       <use xlink:href="#m1270ebd517" x="53.750209" y="218.442833" style="stroke: #000000; stroke-width: 0.6"/>
      </g>
     </g>
    </g>
    <g id="ytick_14">
     <g id="line2d_23">
      <g>
       <use xlink:href="#m1270ebd517" x="53.750209" y="216.533084" style="stroke: #000000; stroke-width: 0.6"/>
      </g>
     </g>
    </g>
    <g id="ytick_15">
     <g id="line2d_24">
      <g>
       <use xlink:href="#m1270ebd517" x="53.750209" y="203.585982" style="stroke: #000000; stroke-width: 0.6"/>
      </g>
     </g>
    </g>
    <g id="ytick_16">
     <g id="line2d_25">
      <g>
       <use xlink:href="#m1270ebd517" x="53.750209" y="197.011721" style="stroke: #000000; stroke-width: 0.6"/>
      </g>
     </g>
    </g>
    <g id="ytick_17">
     <g id="line2d_26">
      <g>
       <use xlink:href="#m1270ebd517" x="53.750209" y="192.347208" style="stroke: #000000; stroke-width: 0.6"/>
      </g>
     </g>
    </g>
    <g id="ytick_18">
     <g id="line2d_27">
      <g>
       <use xlink:href="#m1270ebd517" x="53.750209" y="188.729131" style="stroke: #000000; stroke-width: 0.6"/>
      </g>
     </g>
    </g>
    <g id="ytick_19">
     <g id="line2d_28">
      <g>
       <use xlink:href="#m1270ebd517" x="53.750209" y="185.772947" style="stroke: #000000; stroke-width: 0.6"/>
      </g>
     </g>
    </g>
    <g id="ytick_20">
     <g id="line2d_29">
      <g>
       <use xlink:href="#m1270ebd517" x="53.750209" y="183.273529" style="stroke: #000000; stroke-width: 0.6"/>
      </g>
     </g>
    </g>
    <g id="ytick_21">
     <g id="line2d_30">
      <g>
       <use xlink:href="#m1270ebd517" x="53.750209" y="181.108435" style="stroke: #000000; stroke-width: 0.6"/>
      </g>
     </g>
    </g>
    <g id="ytick_22">
     <g id="line2d_31">
      <g>
       <use xlink:href="#m1270ebd517" x="53.750209" y="179.198686" style="stroke: #000000; stroke-width: 0.6"/>
      </g>
     </g>
    </g>
    <g id="ytick_23">
     <g id="line2d_32">
      <g>
       <use xlink:href="#m1270ebd517" x="53.750209" y="166.251584" style="stroke: #000000; stroke-width: 0.6"/>
      </g>
     </g>
    </g>
    <g id="ytick_24">
     <g id="line2d_33">
      <g>
       <use xlink:href="#m1270ebd517" x="53.750209" y="159.677323" style="stroke: #000000; stroke-width: 0.6"/>
      </g>
     </g>
    </g>
    <g id="ytick_25">
     <g id="line2d_34">
      <g>
       <use xlink:href="#m1270ebd517" x="53.750209" y="155.01281" style="stroke: #000000; stroke-width: 0.6"/>
      </g>
     </g>
    </g>
    <g id="ytick_26">
     <g id="line2d_35">
      <g>
       <use xlink:href="#m1270ebd517" x="53.750209" y="151.394733" style="stroke: #000000; stroke-width: 0.6"/>
      </g>
     </g>
    </g>
    <g id="ytick_27">
     <g id="line2d_36">
      <g>
       <use xlink:href="#m1270ebd517" x="53.750209" y="148.438549" style="stroke: #000000; stroke-width: 0.6"/>
      </g>
     </g>
    </g>
    <g id="ytick_28">
     <g id="line2d_37">
      <g>
       <use xlink:href="#m1270ebd517" x="53.750209" y="145.939131" style="stroke: #000000; stroke-width: 0.6"/>
      </g>
     </g>
    </g>
    <g id="ytick_29">
     <g id="line2d_38">
      <g>
       <use xlink:href="#m1270ebd517" x="53.750209" y="143.774036" style="stroke: #000000; stroke-width: 0.6"/>
      </g>
     </g>
    </g>
    <g id="ytick_30">
     <g id="line2d_39">
      <g>
       <use xlink:href="#m1270ebd517" x="53.750209" y="141.864288" style="stroke: #000000; stroke-width: 0.6"/>
      </g>
     </g>
    </g>
    <g id="ytick_31">
     <g id="line2d_40">
      <g>
       <use xlink:href="#m1270ebd517" x="53.750209" y="128.917186" style="stroke: #000000; stroke-width: 0.6"/>
      </g>
     </g>
    </g>
    <g id="ytick_32">
     <g id="line2d_41">
      <g>
       <use xlink:href="#m1270ebd517" x="53.750209" y="122.342924" style="stroke: #000000; stroke-width: 0.6"/>
      </g>
     </g>
    </g>
    <g id="ytick_33">
     <g id="line2d_42">
      <g>
       <use xlink:href="#m1270ebd517" x="53.750209" y="117.678412" style="stroke: #000000; stroke-width: 0.6"/>
      </g>
     </g>
    </g>
    <g id="ytick_34">
     <g id="line2d_43">
      <g>
       <use xlink:href="#m1270ebd517" x="53.750209" y="114.060335" style="stroke: #000000; stroke-width: 0.6"/>
      </g>
     </g>
    </g>
    <g id="ytick_35">
     <g id="line2d_44">
      <g>
       <use xlink:href="#m1270ebd517" x="53.750209" y="111.104151" style="stroke: #000000; stroke-width: 0.6"/>
      </g>
     </g>
    </g>
    <g id="ytick_36">
     <g id="line2d_45">
      <g>
       <use xlink:href="#m1270ebd517" x="53.750209" y="108.604732" style="stroke: #000000; stroke-width: 0.6"/>
      </g>
     </g>
    </g>
    <g id="ytick_37">
     <g id="line2d_46">
      <g>
       <use xlink:href="#m1270ebd517" x="53.750209" y="106.439638" style="stroke: #000000; stroke-width: 0.6"/>
      </g>
     </g>
    </g>
    <g id="ytick_38">
     <g id="line2d_47">
      <g>
       <use xlink:href="#m1270ebd517" x="53.750209" y="104.529889" style="stroke: #000000; stroke-width: 0.6"/>
      </g>
     </g>
    </g>
    <g id="ytick_39">
     <g id="line2d_48">
      <g>
       <use xlink:href="#m1270ebd517" x="53.750209" y="91.582787" style="stroke: #000000; stroke-width: 0.6"/>
      </g>
     </g>
    </g>
    <g id="ytick_40">
     <g id="line2d_49">
      <g>
       <use xlink:href="#m1270ebd517" x="53.750209" y="85.008526" style="stroke: #000000; stroke-width: 0.6"/>
      </g>
     </g>
    </g>
    <g id="ytick_41">
     <g id="line2d_50">
      <g>
       <use xlink:href="#m1270ebd517" x="53.750209" y="80.344013" style="stroke: #000000; stroke-width: 0.6"/>
      </g>
     </g>
    </g>
    <g id="ytick_42">
     <g id="line2d_51">
      <g>
       <use xlink:href="#m1270ebd517" x="53.750209" y="76.725936" style="stroke: #000000; stroke-width: 0.6"/>
      </g>
     </g>
    </g>
    <g id="ytick_43">
     <g id="line2d_52">
      <g>
       <use xlink:href="#m1270ebd517" x="53.750209" y="73.769752" style="stroke: #000000; stroke-width: 0.6"/>
      </g>
     </g>
    </g>
    <g id="ytick_44">
     <g id="line2d_53">
      <g>
       <use xlink:href="#m1270ebd517" x="53.750209" y="71.270334" style="stroke: #000000; stroke-width: 0.6"/>
      </g>
     </g>
    </g>
    <g id="ytick_45">
     <g id="line2d_54">
      <g>
       <use xlink:href="#m1270ebd517" x="53.750209" y="69.10524" style="stroke: #000000; stroke-width: 0.6"/>
      </g>
     </g>
    </g>
    <g id="ytick_46">
     <g id="line2d_55">
      <g>
       <use xlink:href="#m1270ebd517" x="53.750209" y="67.195491" style="stroke: #000000; stroke-width: 0.6"/>
      </g>
     </g>
    </g>
    <g id="ytick_47">
     <g id="line2d_56">
      <g>
       <use xlink:href="#m1270ebd517" x="53.750209" y="54.248389" style="stroke: #000000; stroke-width: 0.6"/>
      </g>
     </g>
    </g>
    <g id="ytick_48">
     <g id="line2d_57">
      <g>
       <use xlink:href="#m1270ebd517" x="53.750209" y="47.674128" style="stroke: #000000; stroke-width: 0.6"/>
      </g>
     </g>
    </g>
    <g id="ytick_49">
     <g id="line2d_58">
      <g>
       <use xlink:href="#m1270ebd517" x="53.750209" y="43.009615" style="stroke: #000000; stroke-width: 0.6"/>
      </g>
     </g>
    </g>
    <g id="ytick_50">
     <g id="line2d_59">
      <g>
       <use xlink:href="#m1270ebd517" x="53.750209" y="39.391538" style="stroke: #000000; stroke-width: 0.6"/>
      </g>
     </g>
    </g>
    <g id="ytick_51">
     <g id="line2d_60">
      <g>
       <use xlink:href="#m1270ebd517" x="53.750209" y="36.435354" style="stroke: #000000; stroke-width: 0.6"/>
      </g>
     </g>
    </g>
    <g id="ytick_52">
     <g id="line2d_61">
      <g>
       <use xlink:href="#m1270ebd517" x="53.750209" y="33.935936" style="stroke: #000000; stroke-width: 0.6"/>
      </g>
     </g>
    </g>
    <g id="ytick_53">
     <g id="line2d_62">
      <g>
       <use xlink:href="#m1270ebd517" x="53.750209" y="31.770841" style="stroke: #000000; stroke-width: 0.6"/>
      </g>
     </g>
    </g>
    <g id="ytick_54">
     <g id="line2d_63">
      <g>
       <use xlink:href="#m1270ebd517" x="53.750209" y="29.861093" style="stroke: #000000; stroke-width: 0.6"/>
      </g>
     </g>
    </g>
    <g id="ytick_55">
     <g id="line2d_64">
      <g>
       <use xlink:href="#m1270ebd517" x="53.750209" y="16.913991" style="stroke: #000000; stroke-width: 0.6"/>
      </g>
     </g>
    </g>
    <g id="text_17">
     <!-- operações básicas $(op)$ -->
     <g transform="translate(23.050209 190.58) rotate(-90) scale(0.1 -0.1)">
      <defs>
       <path id="DejaVuSans-Bold-72" d="M 3138 2547 
Q 2991 2616 2845 2648 
Q 2700 2681 2553 2681 
Q 2122 2681 1889 2404 
Q 1656 2128 1656 1613 
L 1656 0 
L 538 0 
L 538 3500 
L 1656 3500 
L 1656 2925 
Q 1872 3269 2151 3426 
Q 2431 3584 2822 3584 
Q 2878 3584 2943 3579 
Q 3009 3575 3134 3559 
L 3138 2547 
z
" transform="scale(0.015625)"/>
       <path id="DejaVuSans-Bold-e7" d="M 3366 3391 
L 3366 2478 
Q 3138 2634 2908 2709 
Q 2678 2784 2431 2784 
Q 1963 2784 1702 2511 
Q 1441 2238 1441 1747 
Q 1441 1256 1702 982 
Q 1963 709 2431 709 
Q 2694 709 2930 787 
Q 3166 866 3366 1019 
L 3366 103 
Q 3103 6 2833 -42 
Q 2563 -91 2291 -91 
Q 1344 -91 809 395 
Q 275 881 275 1747 
Q 275 2613 809 3098 
Q 1344 3584 2291 3584 
Q 2566 3584 2833 3536 
Q 3100 3488 3366 3391 
z
M 2456 0 
Q 2638 -194 2723 -359 
Q 2809 -525 2809 -672 
Q 2809 -969 2617 -1111 
Q 2425 -1253 2028 -1253 
Q 1878 -1253 1718 -1233 
Q 1559 -1213 1397 -1172 
L 1394 -697 
Q 1550 -747 1679 -770 
Q 1809 -794 1913 -794 
Q 2094 -794 2195 -722 
Q 2297 -650 2297 -525 
Q 2297 -444 2230 -316 
Q 2163 -188 2022 0 
L 2456 0 
z
" transform="scale(0.015625)"/>
       <path id="DejaVuSans-Bold-f5" d="M 2203 2784 
Q 1831 2784 1636 2517 
Q 1441 2250 1441 1747 
Q 1441 1244 1636 976 
Q 1831 709 2203 709 
Q 2569 709 2762 976 
Q 2956 1244 2956 1747 
Q 2956 2250 2762 2517 
Q 2569 2784 2203 2784 
z
M 2203 3584 
Q 3106 3584 3614 3096 
Q 4122 2609 4122 1747 
Q 4122 884 3614 396 
Q 3106 -91 2203 -91 
Q 1297 -91 786 396 
Q 275 884 275 1747 
Q 275 2609 786 3096 
Q 1297 3584 2203 3584 
z
M 2200 4263 
L 2028 4378 
Q 2016 4384 1997 4397 
Q 1850 4494 1772 4494 
Q 1659 4494 1600 4397 
Q 1541 4300 1541 4116 
L 1541 4091 
L 1106 4091 
Q 1106 4516 1267 4747 
Q 1428 4978 1719 4978 
Q 1831 4978 1945 4936 
Q 2059 4894 2188 4800 
L 2378 4666 
Q 2447 4619 2505 4594 
Q 2563 4569 2609 4569 
Q 2722 4569 2784 4669 
Q 2847 4769 2847 4947 
L 2847 4972 
L 3281 4972 
Q 3281 4547 3120 4315 
Q 2959 4084 2669 4084 
Q 2556 4084 2451 4121 
Q 2347 4159 2200 4263 
z
" transform="scale(0.015625)"/>
       <path id="DejaVuSans-Bold-62" d="M 2400 722 
Q 2759 722 2948 984 
Q 3138 1247 3138 1747 
Q 3138 2247 2948 2509 
Q 2759 2772 2400 2772 
Q 2041 2772 1848 2508 
Q 1656 2244 1656 1747 
Q 1656 1250 1848 986 
Q 2041 722 2400 722 
z
M 1656 2988 
Q 1888 3294 2169 3439 
Q 2450 3584 2816 3584 
Q 3463 3584 3878 3070 
Q 4294 2556 4294 1747 
Q 4294 938 3878 423 
Q 3463 -91 2816 -91 
Q 2450 -91 2169 54 
Q 1888 200 1656 506 
L 1656 0 
L 538 0 
L 538 4863 
L 1656 4863 
L 1656 2988 
z
" transform="scale(0.015625)"/>
       <path id="DejaVuSans-Bold-e1" d="M 2106 1575 
Q 1756 1575 1579 1456 
Q 1403 1338 1403 1106 
Q 1403 894 1545 773 
Q 1688 653 1941 653 
Q 2256 653 2472 879 
Q 2688 1106 2688 1447 
L 2688 1575 
L 2106 1575 
z
M 3816 1997 
L 3816 0 
L 2688 0 
L 2688 519 
Q 2463 200 2181 54 
Q 1900 -91 1497 -91 
Q 953 -91 614 226 
Q 275 544 275 1050 
Q 275 1666 698 1953 
Q 1122 2241 2028 2241 
L 2688 2241 
L 2688 2328 
Q 2688 2594 2478 2717 
Q 2269 2841 1825 2841 
Q 1466 2841 1156 2769 
Q 847 2697 581 2553 
L 581 3406 
Q 941 3494 1303 3539 
Q 1666 3584 2028 3584 
Q 2975 3584 3395 3211 
Q 3816 2838 3816 1997 
z
M 2603 5119 
L 3488 5119 
L 2334 3944 
L 1722 3944 
L 2603 5119 
z
" transform="scale(0.015625)"/>
       <path id="DejaVuSans-Bold-63" d="M 3366 3391 
L 3366 2478 
Q 3138 2634 2908 2709 
Q 2678 2784 2431 2784 
Q 1963 2784 1702 2511 
Q 1441 2238 1441 1747 
Q 1441 1256 1702 982 
Q 1963 709 2431 709 
Q 2694 709 2930 787 
Q 3166 866 3366 1019 
L 3366 103 
Q 3103 6 2833 -42 
Q 2563 -91 2291 -91 
Q 1344 -91 809 395 
Q 275 881 275 1747 
Q 275 2613 809 3098 
Q 1344 3584 2291 3584 
Q 2566 3584 2833 3536 
Q 3100 3488 3366 3391 
z
" transform="scale(0.015625)"/>
       <path id="DejaVuSans-Oblique-6f" d="M 1625 -91 
Q 1009 -91 651 289 
Q 294 669 294 1325 
Q 294 1706 417 2101 
Q 541 2497 738 2766 
Q 1047 3184 1428 3384 
Q 1809 3584 2291 3584 
Q 2888 3584 3255 3212 
Q 3622 2841 3622 2241 
Q 3622 1825 3500 1412 
Q 3378 1000 3181 728 
Q 2875 309 2494 109 
Q 2113 -91 1625 -91 
z
M 891 1344 
Q 891 869 1089 633 
Q 1288 397 1691 397 
Q 2269 397 2648 901 
Q 3028 1406 3028 2181 
Q 3028 2634 2825 2865 
Q 2622 3097 2228 3097 
Q 1903 3097 1650 2945 
Q 1397 2794 1197 2484 
Q 1050 2253 970 1956 
Q 891 1659 891 1344 
z
" transform="scale(0.015625)"/>
       <path id="DejaVuSans-Oblique-70" d="M 3175 2156 
Q 3175 2616 2975 2859 
Q 2775 3103 2400 3103 
Q 2144 3103 1911 2972 
Q 1678 2841 1497 2591 
Q 1319 2344 1212 1994 
Q 1106 1644 1106 1300 
Q 1106 863 1306 627 
Q 1506 391 1875 391 
Q 2147 391 2380 519 
Q 2613 647 2778 891 
Q 2956 1147 3065 1494 
Q 3175 1841 3175 2156 
z
M 1394 2969 
Q 1625 3272 1939 3428 
Q 2253 3584 2638 3584 
Q 3175 3584 3472 3232 
Q 3769 2881 3769 2247 
Q 3769 1728 3584 1258 
Q 3400 788 3053 416 
Q 2822 169 2531 39 
Q 2241 -91 1919 -91 
Q 1547 -91 1294 64 
Q 1041 219 916 525 
L 556 -1331 
L -19 -1331 
L 922 3500 
L 1497 3500 
L 1394 2969 
z
" transform="scale(0.015625)"/>
      </defs>
      <use xlink:href="#DejaVuSans-Bold-6f" transform="translate(0 0.015625)"/>
      <use xlink:href="#DejaVuSans-Bold-70" transform="translate(68.701172 0.015625)"/>
      <use xlink:href="#DejaVuSans-Bold-65" transform="translate(140.283203 0.015625)"/>
      <use xlink:href="#DejaVuSans-Bold-72" transform="translate(208.105469 0.015625)"/>
      <use xlink:href="#DejaVuSans-Bold-61" transform="translate(257.421875 0.015625)"/>
      <use xlink:href="#DejaVuSans-Bold-e7" transform="translate(324.902344 0.015625)"/>
      <use xlink:href="#DejaVuSans-Bold-f5" transform="translate(384.179688 0.015625)"/>
      <use xlink:href="#DejaVuSans-Bold-65" transform="translate(452.880859 0.015625)"/>
      <use xlink:href="#DejaVuSans-Bold-73" transform="translate(520.703125 0.015625)"/>
      <use xlink:href="#DejaVuSans-Bold-20" transform="translate(580.224609 0.015625)"/>
      <use xlink:href="#DejaVuSans-Bold-62" transform="translate(615.039062 0.015625)"/>
      <use xlink:href="#DejaVuSans-Bold-e1" transform="translate(686.621094 0.015625)"/>
      <use xlink:href="#DejaVuSans-Bold-73" transform="translate(754.101562 0.015625)"/>
      <use xlink:href="#DejaVuSans-Bold-69" transform="translate(813.623047 0.015625)"/>
      <use xlink:href="#DejaVuSans-Bold-63" transform="translate(847.900391 0.015625)"/>
      <use xlink:href="#DejaVuSans-Bold-61" transform="translate(907.177734 0.015625)"/>
      <use xlink:href="#DejaVuSans-Bold-73" transform="translate(974.658203 0.015625)"/>
      <use xlink:href="#DejaVuSans-Bold-20" transform="translate(1034.179688 0.015625)"/>
      <use xlink:href="#DejaVuSans-28" transform="translate(1068.994141 0.015625)"/>
      <use xlink:href="#DejaVuSans-Oblique-6f" transform="translate(1108.007812 0.015625)"/>
      <use xlink:href="#DejaVuSans-Oblique-70" transform="translate(1169.189453 0.015625)"/>
      <use xlink:href="#DejaVuSans-29" transform="translate(1232.666016 0.015625)"/>
     </g>
    </g>
   </g>
   <g id="line2d_65">
    <path d="M 83.543381 232.598182 
L 84.140439 210.132324 
L 84.737497 199.400751 
L 85.334554 192.323187 
L 85.931612 187.05311 
L 87.125727 179.386972 
L 88.319842 173.837772 
L 89.513957 169.496092 
L 90.708072 165.9343 
L 91.902187 162.9173 
L 93.69336 159.114694 
L 95.484533 155.932571 
L 97.275705 153.19847 
L 99.066878 150.802879 
L 101.455108 148.010991 
L 103.843339 145.573433 
L 106.828626 142.906685 
L 109.813914 140.566973 
L 112.799202 138.483459 
L 116.381547 136.251836 
L 120.56095 133.942403 
L 124.740353 131.884707 
L 129.516814 129.778959 
L 134.890332 127.661576 
L 140.860907 125.559103 
L 147.428541 123.490132 
L 154.593231 121.467125 
L 162.952037 119.354771 
L 171.907901 117.329571 
L 182.057879 115.273216 
L 193.401973 113.216286 
L 205.940182 111.180827 
L 219.672505 109.182118 
L 235.196002 107.156343 
L 252.510671 105.132217 
L 271.616513 103.130422 
L 292.513528 101.165287 
L 315.798773 99.198413 
L 342.069306 97.206989 
L 371.325126 95.21823 
L 403.566234 93.251763 
L 439.986746 91.259222 
L 479.989602 89.296207 
L 524.768919 87.324432 
L 574.921754 85.344036 
L 630.448108 83.377774 
L 679.406828 81.80534 
L 679.406828 81.80534 
" clip-path="url(#pecf5224c34)" style="fill: none; stroke: #1f77b4; stroke-width: 1.5; stroke-linecap: square"/>
   </g>
   <g id="line2d_66">
    <path d="M 83.543381 209.489059 
L 84.140439 187.0232 
L 84.737497 176.291628 
L 85.334554 169.214064 
L 85.931612 163.943987 
L 87.125727 156.277849 
L 88.319842 150.728649 
L 89.513957 146.386969 
L 90.708072 142.825176 
L 91.902187 139.808177 
L 93.69336 136.005571 
L 95.484533 132.823448 
L 97.275705 130.089347 
L 99.066878 127.693756 
L 101.455108 124.901868 
L 103.843339 122.46431 
L 106.828626 119.797562 
L 109.813914 117.45785 
L 112.799202 115.374336 
L 116.381547 113.142713 
L 120.56095 110.83328 
L 124.740353 108.775584 
L 129.516814 106.669836 
L 134.890332 104.552452 
L 140.860907 102.44998 
L 147.428541 100.381009 
L 154.593231 98.358002 
L 162.952037 96.245648 
L 171.907901 94.220448 
L 182.057879 92.164093 
L 193.401973 90.107163 
L 205.940182 88.071703 
L 219.672505 86.072995 
L 235.196002 84.04722 
L 252.510671 82.023094 
L 271.616513 80.021299 
L 292.513528 78.056163 
L 315.798773 76.08929 
L 342.069306 74.097866 
L 371.325126 72.109107 
L 403.566234 70.142639 
L 439.986746 68.150099 
L 479.989602 66.187084 
L 524.768919 64.215308 
L 574.921754 62.234913 
L 630.448108 60.268651 
L 679.406828 58.696217 
L 679.406828 58.696217 
" clip-path="url(#pecf5224c34)" style="fill: none; stroke: #ff7f0e; stroke-width: 1.5; stroke-linecap: square"/>
   </g>
   <g id="line2d_67">
    <path d="M 83.543381 172.15466 
L 84.140439 149.688802 
L 84.737497 138.95723 
L 85.334554 131.879665 
L 85.931612 126.609589 
L 87.125727 118.943451 
L 88.319842 113.394251 
L 89.513957 109.052571 
L 90.708072 105.490778 
L 91.902187 102.473779 
L 93.69336 98.671172 
L 95.484533 95.48905 
L 97.275705 92.754949 
L 99.066878 90.359358 
L 101.455108 87.56747 
L 103.843339 85.129912 
L 106.828626 82.463164 
L 109.813914 80.123452 
L 112.799202 78.039938 
L 116.381547 75.808314 
L 120.56095 73.498882 
L 124.740353 71.441186 
L 129.516814 69.335438 
L 134.890332 67.218054 
L 140.860907 65.115581 
L 147.428541 63.046611 
L 154.593231 61.023603 
L 162.952037 58.91125 
L 171.907901 56.88605 
L 182.057879 54.829694 
L 193.401973 52.772764 
L 205.940182 50.737305 
L 219.672505 48.738597 
L 235.196002 46.712822 
L 252.510671 44.688696 
L 271.616513 42.6869 
L 292.513528 40.721765 
L 315.798773 38.754892 
L 342.069306 36.763467 
L 371.325126 34.774709 
L 403.566234 32.808241 
L 439.986746 30.815701 
L 479.989602 28.852686 
L 524.768919 26.88091 
L 574.921754 24.900515 
L 630.448108 22.934253 
L 679.406828 21.361818 
L 679.406828 21.361818 
" clip-path="url(#pecf5224c34)" style="fill: none; stroke: #2ca02c; stroke-width: 1.5; stroke-linecap: square"/>
   </g>
   <g id="patch_3">
    <path d="M 53.750209 243.16 
L 53.750209 10.8 
" style="fill: none; stroke: #000000; stroke-width: 0.8; stroke-linejoin: miter; stroke-linecap: square"/>
   </g>
   <g id="patch_4">
    <path d="M 709.2 243.16 
L 709.2 10.8 
" style="fill: none; stroke: #000000; stroke-width: 0.8; stroke-linejoin: miter; stroke-linecap: square"/>
   </g>
   <g id="patch_5">
    <path d="M 53.750209 243.16 
L 709.2 243.16 
" style="fill: none; stroke: #000000; stroke-width: 0.8; stroke-linejoin: miter; stroke-linecap: square"/>
   </g>
   <g id="patch_6">
    <path d="M 53.750209 10.8 
L 709.2 10.8 
" style="fill: none; stroke: #000000; stroke-width: 0.8; stroke-linejoin: miter; stroke-linecap: square"/>
   </g>
   <g id="legend_1">
    <g id="patch_7">
     <path d="M 595.6 238.16 
L 702.2 238.16 
Q 704.2 238.16 704.2 236.16 
L 704.2 177.96 
Q 704.2 175.96 702.2 175.96 
L 595.6 175.96 
Q 593.6 175.96 593.6 177.96 
L 593.6 236.16 
Q 593.6 238.16 595.6 238.16 
z
" style="fill: #ffffff; opacity: 0.8; stroke: #cccccc; stroke-linejoin: miter"/>
    </g>
    <g id="PathCollection_2">
     <g>
      <use xlink:href="#m9471b80d89" x="607.6" y="185.335" style="stroke: #000000"/>
     </g>
    </g>
    <g id="text_18">
     <!-- $C_{worst}$ prático -->
     <g transform="translate(625.6 187.96) scale(0.1 -0.1)">
      <defs>
       <path id="DejaVuSans-Oblique-43" d="M 4447 4306 
L 4319 3641 
Q 4019 3944 3683 4091 
Q 3347 4238 2956 4238 
Q 2422 4238 2017 3981 
Q 1613 3725 1319 3200 
Q 1131 2863 1032 2486 
Q 934 2109 934 1728 
Q 934 1091 1264 756 
Q 1594 422 2222 422 
Q 2656 422 3056 561 
Q 3456 700 3834 978 
L 3688 231 
Q 3316 72 2936 -9 
Q 2556 -91 2175 -91 
Q 1278 -91 773 396 
Q 269 884 269 1753 
Q 269 2309 461 2846 
Q 653 3384 1013 3828 
Q 1394 4300 1883 4525 
Q 2372 4750 3022 4750 
Q 3422 4750 3780 4639 
Q 4138 4528 4447 4306 
z
" transform="scale(0.015625)"/>
       <path id="DejaVuSans-Oblique-77" d="M 544 3500 
L 1113 3500 
L 1259 684 
L 2566 3500 
L 3231 3500 
L 3425 684 
L 4666 3500 
L 5241 3500 
L 3641 0 
L 2969 0 
L 2797 2900 
L 1459 0 
L 781 0 
L 544 3500 
z
" transform="scale(0.015625)"/>
       <path id="DejaVuSans-Oblique-72" d="M 2853 2969 
Q 2766 3016 2653 3041 
Q 2541 3066 2413 3066 
Q 1953 3066 1609 2717 
Q 1266 2369 1153 1784 
L 800 0 
L 225 0 
L 909 3500 
L 1484 3500 
L 1375 2956 
Q 1603 3259 1920 3421 
Q 2238 3584 2597 3584 
Q 2691 3584 2781 3573 
Q 2872 3563 2963 3538 
L 2853 2969 
z
" transform="scale(0.015625)"/>
       <path id="DejaVuSans-Oblique-73" d="M 3200 3397 
L 3091 2853 
Q 2863 2978 2609 3040 
Q 2356 3103 2088 3103 
Q 1634 3103 1373 2948 
Q 1113 2794 1113 2528 
Q 1113 2219 1719 2053 
Q 1766 2041 1788 2034 
L 1972 1978 
Q 2547 1819 2739 1644 
Q 2931 1469 2931 1166 
Q 2931 609 2489 259 
Q 2047 -91 1331 -91 
Q 1053 -91 747 -37 
Q 441 16 72 128 
L 184 722 
Q 500 559 806 475 
Q 1113 391 1394 391 
Q 1816 391 2080 572 
Q 2344 753 2344 1031 
Q 2344 1331 1650 1516 
L 1591 1531 
L 1394 1581 
Q 956 1697 753 1886 
Q 550 2075 550 2369 
Q 550 2928 970 3256 
Q 1391 3584 2113 3584 
Q 2397 3584 2667 3537 
Q 2938 3491 3200 3397 
z
" transform="scale(0.015625)"/>
       <path id="DejaVuSans-Oblique-74" d="M 2706 3500 
L 2619 3053 
L 1472 3053 
L 1100 1153 
Q 1081 1047 1072 975 
Q 1063 903 1063 863 
Q 1063 663 1183 572 
Q 1303 481 1569 481 
L 2150 481 
L 2053 0 
L 1503 0 
Q 991 0 739 200 
Q 488 400 488 806 
Q 488 878 497 964 
Q 506 1050 525 1153 
L 897 3053 
L 409 3053 
L 500 3500 
L 978 3500 
L 1172 4494 
L 1747 4494 
L 1556 3500 
L 2706 3500 
z
" transform="scale(0.015625)"/>
       <path id="DejaVuSans-20" transform="scale(0.015625)"/>
       <path id="DejaVuSans-70" d="M 1159 525 
L 1159 -1331 
L 581 -1331 
L 581 3500 
L 1159 3500 
L 1159 2969 
Q 1341 3281 1617 3432 
Q 1894 3584 2278 3584 
Q 2916 3584 3314 3078 
Q 3713 2572 3713 1747 
Q 3713 922 3314 415 
Q 2916 -91 2278 -91 
Q 1894 -91 1617 61 
Q 1341 213 1159 525 
z
M 3116 1747 
Q 3116 2381 2855 2742 
Q 2594 3103 2138 3103 
Q 1681 3103 1420 2742 
Q 1159 2381 1159 1747 
Q 1159 1113 1420 752 
Q 1681 391 2138 391 
Q 2594 391 2855 752 
Q 3116 1113 3116 1747 
z
" transform="scale(0.015625)"/>
       <path id="DejaVuSans-72" d="M 2631 2963 
Q 2534 3019 2420 3045 
Q 2306 3072 2169 3072 
Q 1681 3072 1420 2755 
Q 1159 2438 1159 1844 
L 1159 0 
L 581 0 
L 581 3500 
L 1159 3500 
L 1159 2956 
Q 1341 3275 1631 3429 
Q 1922 3584 2338 3584 
Q 2397 3584 2469 3576 
Q 2541 3569 2628 3553 
L 2631 2963 
z
" transform="scale(0.015625)"/>
       <path id="DejaVuSans-e1" d="M 2194 1759 
Q 1497 1759 1228 1600 
Q 959 1441 959 1056 
Q 959 750 1161 570 
Q 1363 391 1709 391 
Q 2188 391 2477 730 
Q 2766 1069 2766 1631 
L 2766 1759 
L 2194 1759 
z
M 3341 1997 
L 3341 0 
L 2766 0 
L 2766 531 
Q 2569 213 2275 61 
Q 1981 -91 1556 -91 
Q 1019 -91 701 211 
Q 384 513 384 1019 
Q 384 1609 779 1909 
Q 1175 2209 1959 2209 
L 2766 2209 
L 2766 2266 
Q 2766 2663 2505 2880 
Q 2244 3097 1772 3097 
Q 1472 3097 1187 3025 
Q 903 2953 641 2809 
L 641 3341 
Q 956 3463 1253 3523 
Q 1550 3584 1831 3584 
Q 2591 3584 2966 3190 
Q 3341 2797 3341 1997 
z
M 2291 5119 
L 2913 5119 
L 1894 3944 
L 1416 3944 
L 2291 5119 
z
" transform="scale(0.015625)"/>
       <path id="DejaVuSans-74" d="M 1172 4494 
L 1172 3500 
L 2356 3500 
L 2356 3053 
L 1172 3053 
L 1172 1153 
Q 1172 725 1289 603 
Q 1406 481 1766 481 
L 2356 481 
L 2356 0 
L 1766 0 
Q 1100 0 847 248 
Q 594 497 594 1153 
L 594 3053 
L 172 3053 
L 172 3500 
L 594 3500 
L 594 4494 
L 1172 4494 
z
" transform="scale(0.015625)"/>
       <path id="DejaVuSans-69" d="M 603 3500 
L 1178 3500 
L 1178 0 
L 603 0 
L 603 3500 
z
M 603 4863 
L 1178 4863 
L 1178 4134 
L 603 4134 
L 603 4863 
z
" transform="scale(0.015625)"/>
       <path id="DejaVuSans-63" d="M 3122 3366 
L 3122 2828 
Q 2878 2963 2633 3030 
Q 2388 3097 2138 3097 
Q 1578 3097 1268 2742 
Q 959 2388 959 1747 
Q 959 1106 1268 751 
Q 1578 397 2138 397 
Q 2388 397 2633 464 
Q 2878 531 3122 666 
L 3122 134 
Q 2881 22 2623 -34 
Q 2366 -91 2075 -91 
Q 1284 -91 818 406 
Q 353 903 353 1747 
Q 353 2603 823 3093 
Q 1294 3584 2113 3584 
Q 2378 3584 2631 3529 
Q 2884 3475 3122 3366 
z
" transform="scale(0.015625)"/>
       <path id="DejaVuSans-6f" d="M 1959 3097 
Q 1497 3097 1228 2736 
Q 959 2375 959 1747 
Q 959 1119 1226 758 
Q 1494 397 1959 397 
Q 2419 397 2687 759 
Q 2956 1122 2956 1747 
Q 2956 2369 2687 2733 
Q 2419 3097 1959 3097 
z
M 1959 3584 
Q 2709 3584 3137 3096 
Q 3566 2609 3566 1747 
Q 3566 888 3137 398 
Q 2709 -91 1959 -91 
Q 1206 -91 779 398 
Q 353 888 353 1747 
Q 353 2609 779 3096 
Q 1206 3584 1959 3584 
z
" transform="scale(0.015625)"/>
      </defs>
      <use xlink:href="#DejaVuSans-Oblique-43" transform="translate(0 0.015625)"/>
      <use xlink:href="#DejaVuSans-Oblique-77" transform="translate(69.824219 -16.390625) scale(0.7)"/>
      <use xlink:href="#DejaVuSans-Oblique-6f" transform="translate(127.075195 -16.390625) scale(0.7)"/>
      <use xlink:href="#DejaVuSans-Oblique-72" transform="translate(169.902344 -16.390625) scale(0.7)"/>
      <use xlink:href="#DejaVuSans-Oblique-73" transform="translate(198.681641 -16.390625) scale(0.7)"/>
      <use xlink:href="#DejaVuSans-Oblique-74" transform="translate(235.151367 -16.390625) scale(0.7)"/>
      <use xlink:href="#DejaVuSans-20" transform="translate(265.332031 0.015625)"/>
      <use xlink:href="#DejaVuSans-70" transform="translate(297.119141 0.015625)"/>
      <use xlink:href="#DejaVuSans-72" transform="translate(360.595703 0.015625)"/>
      <use xlink:href="#DejaVuSans-e1" transform="translate(401.708984 0.015625)"/>
      <use xlink:href="#DejaVuSans-74" transform="translate(462.988281 0.015625)"/>
      <use xlink:href="#DejaVuSans-69" transform="translate(502.197266 0.015625)"/>
      <use xlink:href="#DejaVuSans-63" transform="translate(529.980469 0.015625)"/>
      <use xlink:href="#DejaVuSans-6f" transform="translate(584.960938 0.015625)"/>
     </g>
    </g>
    <g id="line2d_68">
     <path d="M 597.6 199.16 
L 607.6 199.16 
L 617.6 199.16 
" style="fill: none; stroke: #1f77b4; stroke-width: 1.5; stroke-linecap: square"/>
    </g>
    <g id="text_19">
     <!-- $c_1n\log(n)$ -->
     <g transform="translate(625.6 202.66) scale(0.1 -0.1)">
      <defs>
       <path id="DejaVuSans-Oblique-63" d="M 3431 3366 
L 3316 2797 
Q 3109 2947 2876 3022 
Q 2644 3097 2394 3097 
Q 2119 3097 1870 3000 
Q 1622 2903 1453 2725 
Q 1184 2453 1037 2087 
Q 891 1722 891 1331 
Q 891 859 1127 628 
Q 1363 397 1844 397 
Q 2081 397 2348 469 
Q 2616 541 2906 684 
L 2797 116 
Q 2547 13 2283 -39 
Q 2019 -91 1741 -91 
Q 1044 -91 669 257 
Q 294 606 294 1253 
Q 294 1797 489 2255 
Q 684 2713 1069 3078 
Q 1331 3328 1684 3456 
Q 2038 3584 2456 3584 
Q 2700 3584 2940 3529 
Q 3181 3475 3431 3366 
z
" transform="scale(0.015625)"/>
       <path id="DejaVuSans-6c" d="M 603 4863 
L 1178 4863 
L 1178 0 
L 603 0 
L 603 4863 
z
" transform="scale(0.015625)"/>
       <path id="DejaVuSans-67" d="M 2906 1791 
Q 2906 2416 2648 2759 
Q 2391 3103 1925 3103 
Q 1463 3103 1205 2759 
Q 947 2416 947 1791 
Q 947 1169 1205 825 
Q 1463 481 1925 481 
Q 2391 481 2648 825 
Q 2906 1169 2906 1791 
z
M 3481 434 
Q 3481 -459 3084 -895 
Q 2688 -1331 1869 -1331 
Q 1566 -1331 1297 -1286 
Q 1028 -1241 775 -1147 
L 775 -588 
Q 1028 -725 1275 -790 
Q 1522 -856 1778 -856 
Q 2344 -856 2625 -561 
Q 2906 -266 2906 331 
L 2906 616 
Q 2728 306 2450 153 
Q 2172 0 1784 0 
Q 1141 0 747 490 
Q 353 981 353 1791 
Q 353 2603 747 3093 
Q 1141 3584 1784 3584 
Q 2172 3584 2450 3431 
Q 2728 3278 2906 2969 
L 2906 3500 
L 3481 3500 
L 3481 434 
z
" transform="scale(0.015625)"/>
      </defs>
      <use xlink:href="#DejaVuSans-Oblique-63" transform="translate(0 0.015625)"/>
      <use xlink:href="#DejaVuSans-31" transform="translate(54.980469 -16.390625) scale(0.7)"/>
      <use xlink:href="#DejaVuSans-Oblique-6e" transform="translate(102.250977 0.015625)"/>
      <use xlink:href="#DejaVuSans-6c" transform="translate(165.629883 0.015625)"/>
      <use xlink:href="#DejaVuSans-6f" transform="translate(193.413086 0.015625)"/>
      <use xlink:href="#DejaVuSans-67" transform="translate(254.594727 0.015625)"/>
      <use xlink:href="#DejaVuSans-28" transform="translate(318.071289 0.015625)"/>
      <use xlink:href="#DejaVuSans-Oblique-6e" transform="translate(357.084961 0.015625)"/>
      <use xlink:href="#DejaVuSans-29" transform="translate(420.463867 0.015625)"/>
     </g>
    </g>
    <g id="line2d_69">
     <path d="M 597.6 213.86 
L 607.6 213.86 
L 617.6 213.86 
" style="fill: none; stroke: #ff7f0e; stroke-width: 1.5; stroke-linecap: square"/>
    </g>
    <g id="text_20">
     <!-- $C_{worst} = n\log(n)$ -->
     <g transform="translate(625.6 217.36) scale(0.1 -0.1)">
      <defs>
       <path id="DejaVuSans-3d" d="M 678 2906 
L 4684 2906 
L 4684 2381 
L 678 2381 
L 678 2906 
z
M 678 1631 
L 4684 1631 
L 4684 1100 
L 678 1100 
L 678 1631 
z
" transform="scale(0.015625)"/>
      </defs>
      <use xlink:href="#DejaVuSans-Oblique-43" transform="translate(0 0.015625)"/>
      <use xlink:href="#DejaVuSans-Oblique-77" transform="translate(69.824219 -16.390625) scale(0.7)"/>
      <use xlink:href="#DejaVuSans-Oblique-6f" transform="translate(127.075195 -16.390625) scale(0.7)"/>
      <use xlink:href="#DejaVuSans-Oblique-72" transform="translate(169.902344 -16.390625) scale(0.7)"/>
      <use xlink:href="#DejaVuSans-Oblique-73" transform="translate(198.681641 -16.390625) scale(0.7)"/>
      <use xlink:href="#DejaVuSans-Oblique-74" transform="translate(235.151367 -16.390625) scale(0.7)"/>
      <use xlink:href="#DejaVuSans-3d" transform="translate(284.814453 0.015625)"/>
      <use xlink:href="#DejaVuSans-Oblique-6e" transform="translate(388.085938 0.015625)"/>
      <use xlink:href="#DejaVuSans-6c" transform="translate(451.464844 0.015625)"/>
      <use xlink:href="#DejaVuSans-6f" transform="translate(479.248047 0.015625)"/>
      <use xlink:href="#DejaVuSans-67" transform="translate(540.429688 0.015625)"/>
      <use xlink:href="#DejaVuSans-28" transform="translate(603.90625 0.015625)"/>
      <use xlink:href="#DejaVuSans-Oblique-6e" transform="translate(642.919922 0.015625)"/>
      <use xlink:href="#DejaVuSans-29" transform="translate(706.298828 0.015625)"/>
     </g>
    </g>
    <g id="line2d_70">
     <path d="M 597.6 228.56 
L 607.6 228.56 
L 617.6 228.56 
" style="fill: none; stroke: #2ca02c; stroke-width: 1.5; stroke-linecap: square"/>
    </g>
    <g id="text_21">
     <!-- $c_2 n\log(n)$ -->
     <g transform="translate(625.6 232.06) scale(0.1 -0.1)">
      <use xlink:href="#DejaVuSans-Oblique-63" transform="translate(0 0.015625)"/>
      <use xlink:href="#DejaVuSans-32" transform="translate(54.980469 -16.390625) scale(0.7)"/>
      <use xlink:href="#DejaVuSans-Oblique-6e" transform="translate(102.250977 0.015625)"/>
      <use xlink:href="#DejaVuSans-6c" transform="translate(165.629883 0.015625)"/>
      <use xlink:href="#DejaVuSans-6f" transform="translate(193.413086 0.015625)"/>
      <use xlink:href="#DejaVuSans-67" transform="translate(254.594727 0.015625)"/>
      <use xlink:href="#DejaVuSans-28" transform="translate(318.071289 0.015625)"/>
      <use xlink:href="#DejaVuSans-Oblique-6e" transform="translate(357.084961 0.015625)"/>
      <use xlink:href="#DejaVuSans-29" transform="translate(420.463867 0.015625)"/>
     </g>
    </g>
   </g>
  </g>
 </g>
 <defs>
  <clipPath id="pecf5224c34">
   <rect x="53.750209" y="10.8" width="655.449791" height="232.36"/>
  </clipPath>
 </defs>
</svg>
